<?xml version="1.0" standalone="no"?>
<!DOCTYPE svg PUBLIC "-//W3C//DTD SVG 20010904//EN"
 "http://www.w3.org/TR/2001/REC-SVG-20010904/DTD/svg10.dtd">
<svg version="1.0" xmlns="http://www.w3.org/2000/svg"
 width="1024.000000pt" height="1024.000000pt" viewBox="0 0 1024.000000 1024.000000"
 preserveAspectRatio="xMidYMid meet">
<metadata>
Created by potrace 1.14, written by Peter Selinger 2001-2017
</metadata>
<g transform="translate(0.000000,1024.000000) scale(0.100000,-0.100000)"
fill="#000000" stroke="none">
<path d="M4919 10236 c-2 -2 -40 -6 -84 -10 -95 -7 -161 -15 -195 -22 -14 -4
-41 -8 -60 -10 -38 -5 -75 -11 -75 -14 0 -2 -30 -8 -70 -13 -16 -3 -37 -8 -46
-11 -9 -4 -27 -8 -41 -10 -13 -1 -28 -5 -33 -8 -6 -3 -23 -8 -40 -12 -83 -19
-290 -91 -337 -116 -10 -6 -23 -10 -29 -10 -18 0 -250 -111 -349 -167 -88 -50
-203 -121 -235 -146 -5 -4 -46 -33 -90 -64 -44 -32 -85 -62 -91 -68 -6 -5 -33
-28 -60 -50 -208 -171 -447 -430 -584 -635 -8 -12 -21 -28 -27 -36 -7 -7 -13
-15 -13 -18 0 -2 -17 -31 -39 -63 -61 -93 -225 -399 -221 -413 1 -3 -8 -11
-19 -19 -14 -9 -21 -10 -21 -2 0 7 -8 8 -25 1 -14 -5 -25 -6 -25 -2 0 4 -29 7
-65 7 -36 0 -65 -2 -65 -5 0 -3 -26 -5 -58 -6 -104 -1 -153 -20 -217 -83 -76
-75 -93 -110 -100 -209 -2 -29 -7 -56 -10 -61 -3 -5 -1 -12 4 -15 6 -4 6 -18
1 -36 -5 -17 -5 -30 0 -30 4 0 4 -16 0 -35 -4 -19 -4 -37 0 -40 5 -3 5 -19 0
-35 -5 -18 -5 -32 1 -36 5 -3 7 -10 3 -15 -8 -14 -10 -99 -2 -99 4 0 3 -13 -2
-30 -5 -16 -6 -30 -2 -30 8 0 7 -68 -1 -76 -3 -3 -2 -17 3 -30 6 -14 6 -24 0
-24 -5 0 -5 -12 0 -30 5 -17 5 -30 0 -30 -5 0 -5 -13 0 -30 5 -17 5 -30 0 -30
-5 0 -5 -13 0 -30 5 -17 5 -30 0 -30 -5 0 -5 -12 -1 -28 5 -15 5 -37 0 -49 -5
-13 -4 -25 1 -28 6 -4 7 -13 1 -24 -5 -9 -6 -23 -2 -29 4 -7 4 -35 1 -62 -4
-28 -3 -50 1 -50 4 0 4 -13 -1 -30 -5 -16 -6 -30 -2 -30 8 0 7 -68 -1 -76 -3
-3 -2 -17 3 -30 6 -14 6 -24 0 -24 -5 0 -5 -12 0 -30 5 -17 5 -30 0 -30 -5 0
-5 -13 0 -30 5 -17 5 -30 0 -30 -5 0 -5 -13 0 -30 5 -17 5 -30 0 -30 -5 0 -5
-12 -1 -28 5 -15 5 -37 0 -49 -5 -13 -4 -25 1 -28 6 -4 7 -13 1 -24 -5 -9 -6
-23 -2 -30 5 -7 5 -30 1 -51 -4 -21 -4 -44 1 -51 4 -7 4 -20 -1 -29 -4 -8 -4
-22 0 -31 5 -8 5 -21 0 -28 -4 -8 -4 -27 0 -42 5 -16 5 -29 0 -29 -5 0 -5 -13
0 -30 5 -19 5 -30 -1 -30 -6 0 -8 -4 -5 -9 3 -5 8 -37 10 -71 3 -35 10 -68 16
-74 5 -5 10 -18 10 -27 0 -9 7 -22 15 -29 9 -7 13 -15 10 -18 -9 -9 75 -82
124 -106 42 -22 138 -41 181 -38 36 4 103 1 111 -4 5 -3 9 0 9 6 0 6 4 9 9 6
5 -3 30 -7 56 -8 l47 -1 34 -76 c19 -42 38 -83 44 -91 5 -8 26 -46 46 -85 20
-38 39 -72 43 -75 9 -8 42 -63 48 -82 3 -10 9 -18 14 -18 5 0 9 -5 9 -11 0
-11 53 -91 78 -117 6 -7 12 -17 12 -22 0 -4 16 -25 35 -46 19 -22 35 -44 35
-51 0 -7 6 -16 13 -20 6 -4 44 -47 84 -94 68 -82 244 -264 309 -319 98 -84
204 -171 226 -185 8 -5 50 -34 92 -63 41 -29 79 -52 82 -51 4 0 10 -3 13 -8 6
-9 84 -58 156 -98 54 -31 194 -103 203 -106 16 -5 118 -50 136 -60 10 -6 26
-12 35 -14 9 -2 59 -20 111 -40 52 -19 102 -37 110 -39 8 -1 22 -6 30 -9 48
-19 298 -77 355 -83 22 -2 47 -7 55 -10 8 -3 33 -7 55 -10 22 -3 54 -7 70 -9
98 -14 204 -19 395 -20 197 0 273 4 400 20 25 4 56 8 70 9 64 9 218 38 248 47
18 6 47 13 65 16 18 3 40 9 50 14 9 5 17 7 17 4 0 -2 17 1 38 9 20 8 69 24
107 36 39 12 77 24 85 27 8 4 17 7 20 7 12 3 131 51 190 78 36 17 82 37 103
45 20 8 37 19 37 24 0 5 8 9 18 9 10 0 27 7 38 15 10 8 46 28 80 44 33 17 67
37 74 46 7 8 16 15 21 15 8 0 167 101 196 125 7 6 23 18 35 27 413 309 725
677 950 1118 32 63 62 120 66 125 4 6 8 17 10 25 6 28 30 38 72 30 22 -4 43
-3 46 1 3 5 9 7 14 4 10 -6 76 -7 160 -2 66 3 140 24 140 39 0 4 6 8 13 8 16
0 68 47 99 90 42 58 59 128 58 243 0 9 0 24 0 32 0 8 0 22 0 30 0 8 0 22 0 30
0 8 0 22 0 30 0 8 0 22 0 30 0 8 0 22 0 30 0 8 0 22 0 30 0 8 0 22 0 30 0 8 0
22 0 30 0 8 0 22 0 30 0 8 0 22 0 30 0 8 0 22 0 30 0 8 0 22 0 30 0 8 0 22 0
30 0 8 0 22 0 30 0 8 0 22 0 30 0 8 0 21 0 28 0 6 -1 26 -3 42 -1 17 1 40 5
52 4 12 3 25 -2 28 -5 3 -5 18 0 35 5 17 5 30 0 30 -4 0 -4 16 0 35 4 19 4 37
0 40 -5 3 -5 19 0 35 5 17 5 32 0 35 -5 3 -6 13 -3 22 8 21 9 64 1 84 -3 9 -2
22 2 29 5 8 5 21 0 30 -5 9 -5 22 0 29 4 8 4 27 0 42 -5 16 -5 29 0 29 5 0 5
13 0 30 -5 17 -5 30 0 30 5 0 5 13 0 30 -5 17 -5 30 0 30 5 0 5 13 0 30 -5 17
-5 30 0 30 5 0 5 13 0 30 -5 17 -6 30 -2 30 4 0 7 16 7 35 0 19 -3 35 -7 35
-4 0 -3 14 2 30 5 17 5 30 1 30 -4 0 -5 22 -1 50 3 27 3 55 -1 62 -4 6 -4 19
1 28 4 8 4 22 0 31 -5 8 -5 21 0 28 4 8 4 27 0 42 -5 16 -5 29 0 29 5 0 5 13
0 30 -5 19 -5 30 1 30 6 0 8 4 5 9 -3 5 -8 37 -10 71 -3 35 -10 68 -16 74 -5
5 -10 16 -10 23 0 26 -79 123 -100 123 -5 0 -10 4 -10 10 0 17 -92 52 -142 54
-26 0 -48 4 -48 8 0 4 -11 3 -25 -2 -16 -6 -25 -6 -25 0 0 6 -9 6 -25 0 -15
-6 -26 -6 -30 0 -4 7 -13 6 -25 0 -13 -7 -21 -7 -25 0 -4 7 -12 7 -24 0 -10
-5 -20 -7 -22 -5 -3 2 -17 6 -33 9 -29 5 -41 12 -41 24 -1 4 -6 17 -13 30 -7
12 -9 22 -5 22 4 0 3 4 -2 8 -6 4 -19 27 -30 52 -11 25 -22 47 -25 50 -3 3
-21 34 -39 70 -18 36 -40 72 -47 81 -8 8 -14 19 -14 23 0 7 -128 205 -140 216
-3 3 -21 28 -40 55 -19 28 -39 55 -45 60 -6 6 -29 33 -50 60 -99 125 -277 304
-445 445 -46 38 -58 48 -105 80 -27 19 -54 40 -60 46 -11 11 -187 128 -195
129 -5 1 -46 25 -90 54 -39 26 -318 161 -333 161 -7 0 -17 4 -22 8 -9 8 -172
71 -198 76 -7 2 -19 6 -27 9 -19 8 -188 57 -215 63 -11 2 -51 11 -90 20 -38 9
-83 18 -100 19 -16 2 -30 4 -30 5 0 4 -120 23 -157 24 -10 0 -18 3 -18 6 0 6
-36 8 -341 14 -130 3 -238 4 -240 2z m-1214 -1916 c11 4 30 4 42 -1 14 -5 25
-4 29 2 4 7 10 7 16 1 5 -5 27 -6 49 -2 22 4 42 4 45 -1 2 -4 16 -4 29 1 15 6
25 6 25 0 0 -5 12 -5 28 -1 15 5 37 5 49 0 13 -5 25 -4 28 2 4 6 13 6 23 0 10
-6 23 -6 34 0 10 6 19 5 23 -1 4 -6 15 -6 30 0 15 6 25 6 25 0 0 -5 12 -5 28
-1 15 5 37 5 49 0 13 -5 25 -4 28 2 4 6 13 6 23 0 10 -6 23 -6 34 0 10 6 19 5
23 -1 4 -7 12 -7 25 0 13 7 21 7 25 0 4 -7 12 -7 25 0 12 6 21 7 25 0 3 -5 15
-6 28 -1 12 5 34 5 49 0 16 -4 28 -4 28 1 0 6 10 6 25 0 15 -6 26 -6 30 1 4 6
13 6 23 0 10 -6 23 -6 34 0 10 6 19 5 23 -1 3 -5 15 -6 28 -1 12 5 34 5 49 0
16 -4 28 -4 28 1 0 6 10 6 25 0 15 -6 26 -6 30 1 4 6 13 6 23 0 10 -6 23 -6
34 0 10 6 19 5 23 -1 3 -5 15 -6 28 -1 12 5 34 5 49 0 16 -4 30 -3 33 2 4 5
13 5 24 -1 10 -5 21 -7 24 -4 7 8 163 8 176 0 6 -4 11 -3 11 3 0 7 8 7 25 1
15 -6 26 -6 30 1 4 6 13 6 23 0 10 -6 23 -6 34 0 10 6 19 5 23 -1 3 -5 15 -6
28 -1 12 5 34 5 49 0 16 -4 28 -4 28 1 0 6 10 6 25 0 15 -6 26 -6 30 1 4 6 13
6 23 0 10 -6 23 -6 34 0 10 6 19 5 23 -1 3 -5 15 -6 28 -1 12 5 34 5 49 0 16
-4 28 -4 28 1 0 6 10 6 25 0 15 -6 27 -6 30 0 3 6 15 6 30 0 15 -6 27 -6 30 1
4 6 13 6 23 0 10 -6 23 -6 34 0 10 6 19 5 23 -1 4 -6 15 -6 30 0 15 6 25 6 25
0 0 -5 12 -5 28 -1 15 5 37 5 49 0 13 -5 25 -4 28 1 4 6 13 7 24 1 10 -6 23
-6 31 -1 8 5 18 6 24 3 14 -9 67 -9 73 0 2 4 13 3 23 -3 13 -7 21 -7 25 0 5 8
11 8 19 1 7 -6 15 -9 18 -6 8 8 184 9 196 1 6 -3 13 -2 17 4 4 6 11 7 18 3 6
-3 36 -8 66 -10 67 -5 116 -10 116 -13 0 -1 14 -4 30 -6 86 -14 345 -123 345
-145 0 -5 6 -9 13 -9 15 -1 75 -50 139 -115 120 -122 198 -278 213 -430 6 -55
9 -248 4 -270 -1 -6 -1 -12 1 -15 4 -12 5 -80 0 -80 -3 0 -5 -16 -5 -35 0 -19
3 -35 7 -35 4 0 3 -13 -2 -30 -5 -19 -5 -30 1 -30 6 0 8 -4 5 -8 -2 -4 -7 -64
-10 -133 -3 -68 -12 -167 -21 -219 -19 -120 -21 -129 -34 -162 -6 -16 -9 -28
-7 -28 5 0 -37 -132 -67 -213 -31 -80 -107 -236 -124 -255 -6 -6 -15 -21 -18
-32 -3 -11 -11 -20 -17 -20 -6 0 -8 -3 -5 -6 4 -4 -7 -24 -23 -44 -17 -21 -30
-41 -30 -44 0 -6 -25 -38 -52 -68 -10 -10 -16 -18 -13 -18 9 0 -61 -76 -155
-170 -140 -140 -258 -229 -435 -327 -72 -40 -229 -112 -255 -117 -8 -2 -24 -6
-35 -10 -56 -21 -136 -45 -177 -53 -10 -2 -28 -5 -40 -7 -13 -3 -23 -5 -23 -6
0 -3 -41 -10 -85 -15 -25 -3 -52 -8 -60 -10 -14 -4 -214 -17 -250 -16 -8 0
-62 0 -120 0 -58 0 -112 0 -120 0 -139 2 -373 0 -380 -4 -5 -3 -11 -1 -15 5
-4 6 -10 8 -15 5 -7 -4 -123 -6 -240 -4 -8 1 -26 0 -40 -1 -28 -3 -226 8 -256
14 -10 2 -39 7 -64 10 -50 7 -84 13 -87 16 -2 2 -11 3 -20 5 -28 3 -74 15
-118 30 -22 8 -49 16 -60 18 -11 2 -33 9 -48 15 -16 7 -32 12 -37 12 -5 0 -37
13 -72 29 -35 16 -73 32 -85 36 -13 3 -23 11 -23 16 0 5 -8 9 -18 9 -10 0 -22
4 -27 9 -6 5 -32 21 -60 36 -27 15 -71 43 -98 61 -26 19 -50 34 -53 34 -3 0
-11 6 -18 13 -7 6 -28 23 -46 37 -19 14 -47 36 -64 50 -42 33 -215 208 -246
248 -14 18 -30 38 -36 45 -31 36 -94 128 -94 137 0 5 -3 10 -7 10 -5 0 -17 18
-27 40 -11 22 -24 40 -29 40 -6 0 -8 3 -4 6 3 3 -8 28 -24 55 -16 28 -29 52
-29 54 0 3 -14 35 -31 71 -41 90 -95 254 -113 346 -20 101 -25 130 -31 178 -3
30 -8 90 -10 133 -2 44 -6 81 -8 84 -3 2 -1 18 3 34 5 16 5 29 0 29 -5 0 -5
13 0 30 5 17 6 30 2 30 -7 0 -7 134 -1 227 2 23 0 45 -3 48 -3 4 -2 20 2 36 5
18 5 29 -1 29 -6 0 -8 4 -4 9 3 5 7 40 9 78 5 79 9 96 36 179 48 143 164 290
305 387 33 22 63 45 67 51 4 6 8 8 8 4 0 -4 30 8 68 26 112 56 256 94 384 100
32 2 61 6 65 9 3 4 11 3 17 -2 6 -5 20 -5 31 -1z"/>
<path d="M4130 7822 c-8 -3 -19 -10 -25 -16 -12 -12 -58 -134 -58 -153 0 -7
-3 -13 -7 -13 -4 0 -7 -6 -8 -12 -1 -20 -9 -47 -41 -135 -16 -46 -27 -83 -24
-83 3 0 1 -6 -5 -12 -5 -7 -15 -31 -21 -53 -6 -22 -16 -48 -23 -56 -7 -9 -119
-51 -248 -94 -129 -42 -247 -84 -262 -93 -47 -27 -44 -106 6 -130 19 -10 346
-121 371 -127 6 -1 21 -7 35 -12 14 -6 39 -14 57 -17 17 -4 36 -13 41 -19 8
-12 37 -95 37 -109 0 -3 3 -10 8 -14 4 -4 7 -16 7 -26 0 -10 5 -18 11 -18 5 0
8 -4 5 -8 -5 -8 70 -242 101 -314 25 -59 98 -74 132 -26 9 13 16 25 17 28 0 3
4 12 7 20 9 21 39 113 41 125 1 6 8 20 14 33 7 12 11 22 8 22 -10 0 93 284
106 291 7 4 116 42 243 84 126 42 235 81 241 86 6 5 13 6 17 3 3 -3 13 8 21
25 17 33 13 76 -10 98 -6 7 -122 49 -256 93 -133 44 -249 84 -257 88 -7 4 -29
55 -48 112 -18 58 -36 112 -40 120 -3 8 -7 20 -8 25 -2 6 -19 59 -39 120 -39
114 -63 164 -81 166 -39 5 -52 5 -65 1z"/>
<path d="M2805 3903 c-118 -49 -335 -152 -345 -163 -3 -4 -20 -12 -37 -19 -18
-8 -33 -17 -33 -22 0 -5 -5 -9 -12 -9 -23 0 -315 -194 -411 -272 -15 -13 -41
-34 -58 -48 -17 -14 -52 -43 -78 -65 -60 -52 -331 -321 -331 -329 0 -3 -14
-21 -31 -39 -17 -17 -43 -48 -58 -67 -14 -19 -29 -37 -32 -40 -25 -22 -220
-307 -265 -390 -10 -19 -22 -36 -26 -38 -5 -2 -8 -12 -8 -23 0 -10 -4 -19 -8
-19 -5 0 -17 -19 -27 -42 -10 -24 -24 -50 -30 -58 -6 -8 -26 -49 -45 -90 -18
-41 -41 -93 -51 -115 -38 -84 -67 -165 -61 -165 4 0 2 -4 -4 -8 -8 -6 -98
-281 -108 -332 -2 -8 -6 -26 -9 -40 -4 -14 -9 -36 -12 -50 -3 -14 -12 -58 -20
-99 -15 -71 -18 -90 -29 -171 -23 -160 -25 -178 -31 -387 -5 -167 -3 -187 29
-328 4 -20 75 -161 93 -184 35 -47 130 -138 177 -170 26 -18 75 -46 110 -61
129 -59 113 -58 1172 -59 534 -1 973 2 977 5 3 4 2 15 -3 25 -6 11 -6 20 -1
24 6 3 6 17 1 35 -5 17 -5 30 0 30 5 0 5 13 0 30 -5 18 -5 30 0 30 6 0 5 11 0
26 -6 14 -7 23 -2 21 9 -6 7 107 -2 121 -3 6 -2 13 3 17 6 3 7 15 2 28 -5 13
-5 30 0 39 6 11 5 19 -1 23 -7 4 -7 12 0 25 7 13 7 21 0 25 -6 4 -7 12 -1 22
5 9 5 29 1 45 -5 16 -5 28 0 28 6 0 6 10 0 25 -6 15 -6 26 0 30 7 4 6 13 0 26
-6 10 -7 19 -3 19 4 0 8 25 8 55 0 30 -3 55 -7 55 -4 0 -3 11 2 25 5 14 6 25
2 25 -4 0 -7 14 -7 30 0 17 2 30 5 30 7 0 4 59 -3 66 -3 4 -2 14 3 23 5 10 5
23 0 31 -5 8 -5 21 1 31 5 10 6 20 2 22 -6 4 -9 72 -3 72 1 0 2 15 3 33 1 17
-2 32 -6 32 -5 0 -6 4 -2 9 3 5 7 45 10 89 16 306 274 567 579 588 39 2 72 6
74 9 3 2 13 0 23 -5 11 -6 20 -6 24 -1 3 5 17 6 33 2 15 -5 37 -4 50 0 13 5
22 4 22 -1 0 -6 9 -6 23 -1 13 5 30 5 39 0 11 -6 19 -5 23 1 4 7 12 7 25 0 11
-6 21 -6 25 -1 3 5 17 6 33 2 15 -5 37 -4 50 0 13 5 22 4 22 -1 0 -6 9 -6 23
-1 13 5 30 5 39 0 11 -6 19 -5 23 1 4 7 12 7 25 0 11 -6 21 -6 25 -1 3 5 17 6
33 2 15 -5 37 -4 50 0 13 5 22 4 22 -1 0 -6 9 -6 25 0 16 6 25 6 25 0 0 -6 9
-6 25 0 15 6 26 6 30 0 4 -7 13 -6 25 0 13 7 21 7 25 0 4 -7 12 -7 24 0 10 5
21 7 25 3 7 -8 112 -7 125 1 5 4 12 2 16 -4 4 -7 12 -7 25 0 13 7 21 7 25 0 4
-7 12 -7 24 0 10 5 21 7 25 3 7 -8 112 -7 125 1 5 4 12 2 15 -2 3 -5 26 -6 51
-2 25 4 48 3 51 -2 3 -5 11 -5 18 1 7 6 17 6 26 1 8 -5 18 -6 24 -3 14 9 67 9
73 0 2 -4 13 -3 23 3 13 7 21 7 25 0 4 -7 12 -7 24 0 10 5 21 7 25 3 7 -8 112
-7 125 1 5 4 12 2 16 -4 4 -7 12 -7 25 0 13 7 21 7 25 0 4 -6 12 -7 23 -1 9 5
26 5 39 0 13 -5 25 -4 28 1 4 7 13 6 25 0 11 -6 21 -6 25 -1 3 5 17 6 33 2 15
-5 37 -4 50 0 13 5 22 4 22 -1 0 -6 9 -6 23 -1 13 5 30 5 39 0 11 -6 19 -5 23
1 4 7 12 7 25 0 11 -6 21 -6 25 -1 3 5 17 6 33 2 15 -5 37 -4 50 0 13 5 22 4
22 -1 0 -6 9 -6 23 -1 13 5 30 5 39 0 11 -6 19 -5 23 1 4 7 12 7 25 0 12 -6
21 -7 25 0 3 5 12 7 19 4 22 -8 96 -10 96 -2 0 4 6 6 13 3 6 -2 49 -6 95 -9
219 -14 421 -148 520 -345 46 -91 63 -153 67 -244 2 -38 6 -71 9 -74 3 -4 1
-12 -5 -19 -6 -8 -6 -14 0 -18 6 -4 6 -18 1 -36 -5 -18 -5 -30 0 -30 6 0 6
-10 0 -25 -6 -15 -6 -26 0 -30 6 -4 7 -13 1 -24 -6 -10 -6 -23 -1 -31 5 -8 5
-21 -1 -31 -6 -12 -5 -20 1 -24 7 -5 8 -11 1 -19 -6 -7 -6 -17 -1 -26 5 -8 6
-18 3 -24 -9 -14 -9 -66 -1 -66 4 0 3 -11 -2 -25 -6 -16 -6 -25 0 -25 6 0 6
-9 0 -25 -6 -17 -6 -25 1 -25 6 0 7 -4 4 -10 -9 -14 -10 -114 -2 -127 4 -7 3
-14 -2 -18 -6 -3 -7 -15 -2 -28 5 -13 5 -30 0 -39 -6 -11 -5 -19 1 -23 7 -4 7
-12 0 -25 -7 -13 -7 -21 0 -25 6 -4 7 -12 1 -22 -5 -9 -5 -29 -1 -45 5 -16 5
-28 0 -28 -6 0 -5 -11 0 -26 6 -14 7 -23 2 -21 -4 3 -7 -19 -7 -49 0 -30 3
-54 7 -54 4 0 4 -10 -1 -22 -5 -13 -5 -33 0 -45 5 -13 5 -23 -1 -23 -5 0 -5
-13 0 -30 5 -18 5 -32 -1 -35 -5 -4 -5 -13 1 -24 5 -10 6 -21 3 -25 -9 -8
1984 -2 2012 6 11 4 20 7 20 8 0 1 7 3 15 5 44 9 136 51 191 87 67 42 179 148
179 167 0 6 5 11 10 11 6 0 10 6 10 13 0 7 8 22 18 33 25 26 69 136 87 214 11
49 14 107 10 240 -2 96 -6 193 -9 215 -17 163 -22 199 -29 230 -2 11 -8 43
-11 70 -15 102 -92 403 -131 505 -7 19 -25 69 -40 110 -15 41 -35 93 -45 115
-67 152 -124 267 -172 350 -19 33 -44 76 -54 95 -10 19 -21 37 -25 40 -3 3
-16 23 -29 45 -13 22 -28 45 -32 50 -5 6 -34 46 -65 90 -31 44 -59 82 -62 85
-3 3 -19 23 -35 45 -97 132 -385 426 -521 532 -5 5 -31 25 -56 46 -112 91
-325 231 -484 319 -64 36 -277 140 -290 142 -5 1 -15 5 -21 8 -6 4 -36 16 -67
28 l-57 21 -47 -32 c-27 -18 -57 -41 -67 -51 -11 -10 -26 -18 -33 -18 -7 0
-13 -4 -13 -9 0 -5 -11 -12 -25 -15 -14 -4 -25 -10 -25 -15 0 -5 -13 -14 -30
-21 -16 -7 -30 -17 -30 -22 0 -5 -4 -7 -9 -3 -5 3 -13 0 -16 -5 -4 -6 -17 -16
-28 -21 -12 -5 -36 -18 -53 -28 -54 -33 -170 -91 -181 -91 -6 0 -13 -3 -15 -7
-7 -17 -390 -179 -443 -189 -5 -1 -46 -14 -90 -29 -44 -14 -88 -27 -97 -28
-10 -1 -18 -5 -18 -10 0 -4 -4 -5 -10 -2 -5 3 -16 3 -22 -2 -7 -4 -17 -8 -23
-10 -86 -19 -164 -34 -172 -35 -5 0 -15 -4 -23 -8 -8 -4 -35 -11 -60 -14 -25
-3 -58 -9 -75 -12 -53 -10 -80 -15 -95 -15 -8 -1 -42 -5 -75 -10 -92 -13 -221
-23 -317 -23 -49 -1 -88 -4 -88 -8 0 -4 -10 -4 -22 0 -21 7 -47 8 -73 2 -5 -1
-12 -2 -15 -1 -3 1 -56 4 -119 6 -113 3 -149 6 -306 25 -78 10 -105 14 -162
25 -16 3 -41 8 -58 10 -16 3 -41 7 -55 10 -14 4 -36 8 -49 11 -13 3 -51 12
-85 20 -34 9 -70 17 -81 19 -11 2 -21 4 -22 5 -2 2 -7 4 -13 5 -5 1 -11 3 -12
5 -2 1 -11 3 -20 5 -17 3 -139 41 -168 52 -8 3 -22 7 -31 9 -9 2 -37 13 -63
24 -26 11 -52 20 -57 20 -4 0 -33 11 -63 25 -30 14 -57 25 -60 25 -3 0 -44 18
-91 40 -47 22 -87 40 -89 40 -2 0 -36 18 -76 40 -40 22 -79 40 -86 40 -8 0
-14 4 -14 9 0 5 -10 13 -22 17 -13 4 -25 9 -28 13 -3 3 -25 17 -50 30 -25 13
-105 64 -179 113 -74 48 -137 88 -140 87 -3 0 -33 -12 -66 -26z"/>
<path d="M4065 1263 c-80 -24 -158 -92 -194 -168 -19 -41 -24 -62 -25 -117 -1
-27 -4 -48 -8 -48 -4 0 -3 -13 2 -30 5 -17 5 -30 0 -30 -5 0 -5 -13 0 -30 5
-17 5 -30 0 -30 -5 0 -5 -13 0 -30 5 -17 5 -30 0 -30 -5 0 -5 -13 0 -30 5 -17
5 -30 0 -30 -5 0 -5 -13 0 -30 5 -17 5 -30 0 -30 -5 0 -5 -13 0 -30 5 -17 5
-30 0 -30 -5 0 -5 -13 0 -30 5 -17 5 -30 0 -30 -5 0 -5 -13 0 -30 5 -17 5 -30
0 -30 -5 0 -5 -13 0 -30 5 -17 5 -30 0 -30 -5 0 -5 -13 0 -30 5 -17 5 -30 0
-30 -5 0 -5 -13 0 -30 5 -17 5 -30 0 -30 -5 0 -5 -13 0 -30 5 -17 5 -30 0 -30
-5 0 -5 -12 -1 -28 5 -15 5 -37 0 -49 -5 -13 -4 -25 1 -28 6 -4 7 -13 1 -24
-5 -9 -6 -23 -2 -30 5 -7 6 -22 4 -32 -5 -18 6 -19 314 -19 249 0 320 3 320
13 1 6 2 24 2 39 1 16 1 40 2 55 0 16 0 35 0 43 -1 8 -1 26 0 40 0 14 0 32 0
40 -1 8 -1 26 0 40 0 14 0 32 0 40 -1 8 -1 26 0 40 0 14 0 32 0 40 -1 8 -1 26
0 40 0 14 0 32 0 40 -1 8 -1 26 0 40 0 14 0 32 0 40 -2 25 -1 54 2 74 2 11 1
37 -3 58 -4 21 -4 41 0 43 4 3 5 20 1 37 -4 18 -4 48 0 66 3 18 2 32 -3 32 -5
0 -7 4 -4 8 11 18 5 151 -9 187 -19 53 -37 83 -67 116 -32 35 -118 96 -118 83
0 -4 -7 -1 -15 6 -23 19 -142 21 -200 3z"/>
<path d="M6019 1275 c-3 -2 -14 -6 -25 -8 -30 -5 -96 -43 -130 -75 -49 -45
-87 -111 -98 -172 -1 -3 -5 -11 -9 -17 -5 -7 -5 -13 0 -13 4 0 9 -27 10 -59 2
-91 53 -177 140 -238 18 -13 38 -23 46 -23 7 0 18 -5 24 -11 18 -18 152 -19
206 -2 26 9 47 20 47 24 0 5 6 9 13 9 36 0 119 103 140 175 50 172 -37 340
-208 400 -25 8 -150 17 -156 10z"/>
</g>
</svg>
